<?xml version="1.0" standalone="no"?>
<!DOCTYPE svg PUBLIC "-//W3C//DTD SVG 20010904//EN"
 "http://www.w3.org/TR/2001/REC-SVG-20010904/DTD/svg10.dtd">
<svg version="1.0" xmlns="http://www.w3.org/2000/svg"
 width="112.000000pt" height="112.000000pt" viewBox="0 0 112.000000 112.000000"
 preserveAspectRatio="xMidYMid meet">
<metadata>
Created by potrace 1.14, written by Peter Selinger 2001-2017
</metadata>
<g transform="translate(0.000000,112.000000) scale(0.100000,-0.100000)"
fill="#000000" stroke="none">
<path d="M358 995 c-29 -16 -41 -51 -38 -112 4 -79 14 -73 -132 -73 -116 0
-136 -3 -158 -20 l-25 -19 0 -309 c0 -280 2 -310 17 -326 10 -9 23 -14 29 -10
8 4 9 3 5 -4 -5 -9 120 -12 502 -12 l509 0 25 25 26 25 0 293 c0 160 -4 303
-9 316 -6 15 -14 21 -25 17 -8 -3 -12 -2 -9 4 9 14 -29 20 -158 23 l-118 2 -2
78 c-3 116 -4 117 -232 116 -138 0 -186 -3 -207 -14z m322 -145 l0 -40 -118 0
c-65 0 -121 2 -123 5 -3 2 -3 20 -1 40 l4 35 119 0 119 0 0 -40z m-513 -335
c0 -8 -4 -12 -9 -9 -5 3 -6 10 -3 15 9 13 12 11 12 -6z m720 0 c0 -8 -4 -12
-9 -9 -5 3 -6 10 -3 15 9 13 12 11 12 -6z"/>
</g>
</svg>
